#!OML:ASF F:\VICON\USERDATA\INSTALL\rory3\rory3.ASF
:FULLY-SPECIFIED
:DEGREES
18
root 0.8532004857847533 17.721810862755937 -15.393888330229684 0.6113183735702541 -7.219714472190406 -8.965483122967475
lfemur -25.77368816269651 -5.691877617218306 -7.084758304812089
ltibia 12.623810470481157
lfoot -6.506939132682452 13.109880335571667
ltoes -0.467492432958148
rfemur 11.399383798238333 8.370176087144014 35.485685581140245
rtibia 23.550307312614457
rfoot -17.988289903091015 -5.057512377338886
rtoes -6.620394004244959
lowerback 8.691004969335857 2.9330265492502834 9.205021773455291
upperback -0.2961010824946338 4.959955254815561 2.3464130004333574
thorax -4.627068061223091 2.252445786276577 -3.285372793834648
lowerneck -16.812697477787427 -2.842611581485054 -1.278770204126722
upperneck 21.77109099264765 -3.6821302754967338 0.25725344875684575
head 9.702821473988417 -1.783680136979231 -0.18316458535171357
lclavicle -1.9532406450981722e-15 9.067692723530645e-16
lhumerus -38.73858630070016 6.998758103680249 81.50190922320465
lradius 21.81500737377341
lwrist 2.181877801554387
lhand -26.959001185364382 19.65451035906941
lfingers 7.12502
lthumb -0.38045118546129103 49.633910334165165
rclavicle -1.9532406450981722e-15 9.067692723530645e-16
rhumerus -21.923517347229797 -8.062566419416376 -82.99508682301622
rradius 29.725085087254566
rwrist 1.1132425232620928
rhand -18.3558928462036 25.061889232939414
rfingers 7.12502
rthumb 7.92684715323144 -4.769470660704259
19
root 0.9375104698111061 17.818605433684287 -14.527988716893104 0.022008424447381714 -7.2347544258143035 -7.496886733514476
lfemur -24.746088857474536 -3.71945517898686 -10.409513518293856
ltibia 15.30130899622429
lfoot 0.23016691159080604 5.892660538807225
ltoes -1.708382635593522
rfemur 12.902182781693742 7.801058114359773 33.329588753352105
rtibia 26.20290580675723
rfoot -14.400793648676537 -2.7755366280298945
rtoes -10.65697757961516
lowerback 8.540246855089347 2.9138266637801085 7.867064839450532
upperback -0.20208064196019188 4.766205999680808 2.1079354099589587
thorax -4.547449874083488 2.1937262746363877 -2.767044933570514
lowerneck -16.94959562751141 -2.8543511694818737 -1.4385578115415902
upperneck 22.056087608310786 -3.615011714522046 0.09139802747715031
head 9.828907516377091 -1.783740133640304 -0.2104246855617428
lclavicle -1.9532406683098537e-15 9.067691698370563e-16
lhumerus -39.17258561642481 8.868084557357797 80.7498134767226
lradius 20.294110612158274
lwrist 1.1092113278760438
lhand -27.20779988368733 18.48601356273374
lfingers 7.12502
lthumb -0.6207718835770943 48.46481353897279
rclavicle -1.9532406683098537e-15 9.067691698370563e-16
rhumerus -22.889614665593175 -9.356964269179368 -82.56978827452367
rradius 29.250086535557877
rwrist 1.5441814525240787
rhand -19.79068051460789 23.016497377356664
rfingers 7.12502
rthumb 6.541909487886906 -6.862472300716443
20
root 0.9908761937594666 17.918499830747738 -13.649489109183074 -1.037329615179502 -5.646659322748793 -4.494634114558265
lfemur -22.277190526740355 -3.7424850906960083 -14.944306989731466
ltibia 16.290208451726564
lfoot 3.032019602933592 0.12930668666174516
ltoes -3.0354207134481928
rfemur 11.890783465838844 6.226153724217706 29.764293998882003
rtibia 32.99190195270277
rfoot -7.956000377470873 -1.7821084785123595
rtoes -9.703399097331491
lowerback 8.386508778117612 2.6323183430139583 4.809441846146558
upperback -0.31018469910425933 4.050038752971878 1.373542830101535
thorax -4.793894262686292 1.8981187331521456 -1.7586790962573415
lowerneck -16.252005055944924 -3.0290950368110257 -1.45551755759426
upperneck 22.235285480334767 -3.8949857118655067 0.19302229251415648
head 9.76651947462414 -1.9058433383668243 -0.19979703635473708
lclavicle -1.953240616762468e-15 9.067692386692542e-16
lhumerus -39.319885384181084 10.017582376631207 79.69281945460912
lradius 18.120415240521236
lwrist -0.6389309252193502
lhand -27.039500764202796 18.007514874632243
lfingers 7.12502
lthumb -0.4582557639722059 47.986814849295314
rclavicle -1.953240616762468e-15 9.067692386692542e-16
rhumerus -24.533710102008907 -12.342309309962666 -81.76359102600568
rradius 27.66969135429171
rwrist 2.5871188611760525
rhand -20.067978131313016 22.673998741130454
rfingers 7.12502
rthumb 6.274181872346501 -7.21312090013559
21
root 0.9290170858921074 17.927514093065422 -0.6394940269532157 -2.0625523272615 -4.874661831751485 -2.586196183680308
lfemur -17.987565084097078 -1.9706554302763224 -19.293237777240662
ltibia 27.14476923818604
lfoot -3.242063094490835 -3.5742655285540073
ltoes -3.144660645688567
rfemur 3.7985410196641247 4.574359087173456 26.4881895798235
rtibia 48.21599023765558
rfoot 6.283285805781372 3.006129467217111
rtoes 3.7177784529288473
lowerback 9.341474626208788 2.5832770764144994 3.2343901929893484
upperback 0.08294305916491418 3.8052042817487584 0.7864998457148807
thorax -4.981800800802128 1.816767642912902 -1.1563817521796396
lowerneck -16.445406033550313 -3.156737693099107 -1.418611313319484
upperneck 21.862029666459073 -4.092795585952679 0.5819086668088346
head 9.727510673657347 -1.9653080144494985 -0.08680907162706794
lclavicle -1.4304765113000033e-15 1.3877382382539588e-15
lhumerus -36.70355295808201 8.48665554546947 80.5598698928702
lradius 18.823929150286894
lwrist 0.2715119467788796
lhand -24.867928108604204 22.81138736402036
lfingers 7.12502
lthumb 1.639199457647589 52.78858635314208
rclavicle -1.4304765113000033e-15 1.3877382382539588e-15
rhumerus -25.814057036463794 -14.742262656987242 -80.27585553819739
rradius 27.358220300925012
rwrist 3.0684484272270156
rhand -18.268131624054757 22.682604364164437
rfingers 7.12502
rthumb 8.011428369643417 -7.14277237656521
22
root 0.9087051371510793 17.959031810154837 -1.1689516012417656 -2.859426869035349 -5.337320901288159 -1.6056238125117466
lfemur -16.59321851528526 -1.964099259905418 -21.679150304365564
ltibia 27.39258537530887
lfoot -4.700682536700771 -2.9937099896633192
ltoes -0.7512663863934392
rfemur -2.092784950981338 3.7212062269495347 23.899649758474645
rtibia 56.81173769896287
rfoot 12.35015523600224 1.5864976638513308
rtoes 9.567377353197822
lowerback 9.716279080516827 2.4600680895933364 1.7226819280061982
upperback 0.09993038709912277 3.4780922175263145 0.3880888388545436
thorax -5.1962324173117995 1.6830830847044906 -0.9499268438349261
lowerneck -16.640615960837785 -3.1275041155363428 -1.4824164376707052
upperneck 21.72468569497233 -4.072391398882508 0.6192311954604819
head 9.69508180995575 -1.9455937013874063 -0.06496135633488587
lclavicle -2.4914773283951292e-15 4.109147407571723e-16
lhumerus -36.84144274917941 7.558168237569255 80.83159819311425
lradius 19.46906409678077
lwrist 1.4150936234550295
lhand -24.98505051268491 23.739305600091978
lfingers 7.12502
lthumb 1.5260781777808232 53.713207090537864
rclavicle -2.4914773283951292e-15 4.109147407571723e-16
rhumerus -26.55780049775597 -15.9442640763003 -80.43315174979487
rradius 26.41680279137936
rwrist 3.876431043033344
rhand -18.033049699958426 22.501846773462255
rfingers 7.12502
rthumb 8.238314863185893 -7.31331401752427
23
root 0.9350795550091737 17.993514018271323 -0.7586036057965888 -3.3530719104404407 -5.3855220705447415 -0.3505699877406885
lfemur -13.429932677386812 -2.3349460161836135 -23.728192462062818
ltibia 26.50407377590622
lfoot -7.092058453907527 -0.8833010727781823
ltoes 1.3227822116889185
rfemur -8.263485148941239 2.907480994680986 21.93565449631261
rtibia 64.84020084653238
rfoot 11.755354615125409 -1.3537909108208845
rtoes 11.619566553382322
lowerback 9.947996716865909 2.224525562742111 0.33183273701118854
upperback 0.24149970102317775 3.0000076668361446 0.09938934026722457
thorax -5.224967907979732 1.4753876915877338 -0.4903843397671773
lowerneck -16.593872590777867 -3.0022577429100066 -1.483513714712597
upperneck 21.61724961736077 -3.881229639969086 0.5433414039871253
head 9.648077618553224 -1.8709849288886087 -0.06232570415608801
lclavicle -2.6597172257297147e-15 2.558158811002634e-16
lhumerus -36.03807610580105 6.423626360692148 81.32444850533862
lradius 19.92596850891573
lwrist 2.8369551256370604
lhand -26.376837416598818 23.03389327606107
lfingers 7.12502
lthumb 0.18188535724319488 53.00792425069869
rclavicle -2.6597172257297147e-15 2.558158811002634e-16
rhumerus -26.912139240795057 -16.848628670749516 -80.42162962666687
rradius 25.476200930288293
rwrist 5.215131407972241
rhand -17.5497703604138 22.320546774594792
rfingers 7.12502
rthumb 8.704734688054227 -7.47689334894573
24
root 0.920387341502527 18.03031603732185 -1.5227628407466405 -3.7479599856758767 -5.223884832262293 0.41134800307819397
lfemur -11.060316176857592 -2.6757789129147858 -25.134210022538998
ltibia 26.183513130964062
lfoot -9.173119381223188 0.49514125649972907
ltoes 1.169439760040031
rfemur -13.758143045337103 1.8491805946721 20.823930954857232
rtibia 69.82049403960033
rfoot 7.105579177932372 -4.159562782790971
rtoes 11.295889288819772
lowerback 10.190805208633702 1.8841224282294085 -0.624995932688031
upperback 0.3900455929179564 2.4407555802625627 0.0627529978115875
thorax -5.2633972228261445 1.2199513831955042 -0.0017750543444754463
lowerneck -16.571532535231544 -2.869165748012522 -1.4652784758114659
upperneck 21.571353089981578 -3.6733352377562927 0.398609302882868
head 9.620561277723008 -1.7913568899618484 -0.0783291834884573
lclavicle -2.8010407602521966e-15 1.2577306226373775e-16
lhumerus -35.03757453222535 5.626320887609049 81.6117919784561
lradius 20.21084964258612
lwrist 3.4814721187412063
lhand -26.764578698510697 22.872860778115726
lfingers 7.12502
lthumb -0.19261061365552967 52.847780921231646
rclavicle -2.8010407602521966e-15 1.2577306226373775e-16
rhumerus -27.195668370895405 -18.10402349603985 -80.20521569771529
rradius 24.411341639980918
rwrist 6.572582944757216
rhand -17.033606246482947 22.40564463063131
rfingers 7.12502
rthumb 9.202855662371428 -7.371954660342877
